PathFileType	4	(X/Y/Z)	..\data\2014014\dynamic\2014014_C4_05.trc
DataRate	CameraRate	NumFrames	NumMarkers	Units	OrigDataRate	OrigDataStartFrame	OrigNumFrames
100.000000	100.000000	4	52	mm	100.000000	22	180
Frame#	Time	L_IAS			L_IPS			R_IPS			R_IAS			L_FTC			L_FLE			L_FME			L_FAX			L_TTC			L_FAL			L_TAM			L_FCC			L_FM1			L_FM2			L_FM5			R_FTC			R_FLE			R_FME			R_FAX			R_TTC			R_FAL			R_TAM			R_FCC			R_FM1			R_FM2			R_FM5			CV7			TV10			SXS			SJN			L_SIA			L_SRS			L_SAA			L_SAE			L_HLE			L_HME			L_UOA			L_RSP			L_UHE			L_HM2			L_HM5			R_SIA			R_SRS			R_SAA			R_SAE			R_HLE			R_HME			R_UOA			R_RSP			R_UHE			R_HM2			R_HM5			
		X1	Y1	Z1	X2	Y2	Z2	X3	Y3	Z3	X4	Y4	Z4	X5	Y5	Z5	X6	Y6	Z6	X7	Y7	Z7	X8	Y8	Z8	X9	Y9	Z9	X10	Y10	Z10	X11	Y11	Z11	X12	Y12	Z12	X13	Y13	Z13	X14	Y14	Z14	X15	Y15	Z15	X16	Y16	Z16	X17	Y17	Z17	X18	Y18	Z18	X19	Y19	Z19	X20	Y20	Z20	X21	Y21	Z21	X22	Y22	Z22	X23	Y23	Z23	X24	Y24	Z24	X25	Y25	Z25	X26	Y26	Z26	X27	Y27	Z27	X28	Y28	Z28	X29	Y29	Z29	X30	Y30	Z30	X31	Y31	Z31	X32	Y32	Z32	X33	Y33	Z33	X34	Y34	Z34	X35	Y35	Z35	X36	Y36	Z36	X37	Y37	Z37	X38	Y38	Z38	X39	Y39	Z39	X40	Y40	Z40	X41	Y41	Z41	X42	Y42	Z42	X43	Y43	Z43	X44	Y44	Z44	X45	Y45	Z45	X46	Y46	Z46	X47	Y47	Z47	X48	Y48	Z48	X49	Y49	Z49	X50	Y50	Z50	X51	Y51	Z51	X52	Y52	Z52	

23	0.22	-944.8798828125002	1003.708435058594	103.7838439941405	-1161.935180664063	1009.689575195313	166.6235961914061	-1167.240112304688	994.521423339844	270.9821166992186	-970.4272460937502	972.9779052734377	354.2685241699218	-1008.474609375	912.0415649414065	24.73272132873523	-944.8806762695315	501.9623107910157	82.91411590576162	-963.8715820312502	494.6430664062501	217.5924224853515	-955.4235839843752	438.354949951172	78.93767547607412	-894.3145751953127	434.5106506347657	140.2915496826171	-942.0076904296877	65.88301086425783	113.4009704589843	-928.6126098632815	98.71293640136722	211.1215820312499	-999.6816406250002	21.75944900512696	168.1701660156249	-802.714294433594	18.42477226257325	214.7395477294922	-782.6860351562502	38.54280471801759	157.4723968505859	-834.016052246094	19.01823425292969	96.49542236328118	-1046.508911132813	864.2725830078127	405.5011291503906	-1081.661499023438	464.4648437500001	390.837646484375	-1030.475830078125	449.2615661621095	266.5408630371093	-1131.830200195313	439.1458129882814	391.4624328613281	-1081.237548828125	384.0981445312501	347.9346313476562	-1428.898315429688	229.4709472656251	339.685821533203	-1375.526977539063	213.9292144775391	251.0388183593749	-1470.868896484375	244.2509307861329	270.5750122070311	-1397.883178710938	64.50487518310548	253.202178955078	-1383.617919921875	71.18585205078126	309.5763549804686	-1419.92919921875	97.02864837646487	363.6639099121093	-1122.11328125	1526.712524414063	219.2494659423827	-1214.795288085938	1278.112426757813	224.3976287841796	-937.156677246094	1254.529174804688	226.6976928710937	-995.335876464844	1434.741577148438	225.8847961425781	-1234.706420898438	1304.090576171875	119.0097732543944	-1194.809814453125	1446.191650390625	111.2684402465819	-1154.206420898438	1442.431518554688	46.38993835449205	-1104.02685546875	1437.316162109375	19.55172729492174	-1132.983520507813	1099.801025390625	-67.93273925781266	-1174.823974609375	1092.760131835938	19.52905273437486	-1174.527465820313	1084.136108398438	-39.67556762695327	-1067.815795898438	836.8409423828127	-20.43411254882826	-1137.926879882813	844.579528808594	-77.35566711425797	-1051.633666992188	747.0642700195314	-35.85219192504896	-1154.628173828125	763.1746215820314	-82.15929412841813	-1227.808471679688	1309.786865234375	347.1316833496093	-1178.016235351563	1453.470336914063	355.7881774902343	-1132.015502929688	1441.2021484375	423.0416870117188	-1083.746948242188	1438.943359375	438.7738647460938	-1087.38623046875	1106.98388671875	534.1767578125	-1110.72021484375	1087.101928710938	436.065185546875	-1128.540771484375	1082.35302734375	504.4126892089844	-965.3632812500003	865.292175292969	493.0673522949219	-1033.29931640625	861.4873657226565	554.9556884765625	-923.8179321289066	780.7000122070315	525.1707763671875	-1031.537231445313	762.5440063476564	550.412353515625	
24	0.23	-933.848571777344	1004.639221191406	102.9385910034179	-1151.259521484375	1011.075256347656	165.4611511230468	-1156.747192382813	995.484802246094	269.6230468749999	-960.036804199219	974.2230224609377	353.5308227539062	-998.4514160156252	912.6773681640627	23.74778366088855	-940.419616699219	501.9727478027345	82.6210937499999	-959.2453613281252	494.9855041503907	217.3196258544921	-951.9395141601565	438.3846740722657	78.73674011230459	-890.4476318359377	433.9974670410157	139.9147491455077	-942.1531982421877	65.96936798095705	113.7519454956054	-928.4746093750002	98.71831512451175	211.4909667968749	-999.8049926757815	21.61352157592774	168.2906036376952	-802.8528442382815	18.32924461364746	214.8618469238281	-782.656677246094	38.62746810913087	157.5265502929687	-834.1395263671877	19.28367233276368	96.49731445312493	-1034.882568359375	865.0520629882815	404.3738403320312	-1057.533447265625	464.4246826171876	392.0401916503906	-1006.445190429688	450.084930419922	267.3064575195312	-1107.106201171875	439.7675781250001	392.5068664550781	-1057.271240234375	384.5663452148439	348.1613159179687	-1408.236328125	237.2755432128907	339.2530212402343	-1355.45458984375	220.9251403808594	250.332061767578	-1450.551879882813	252.7001953125001	270.3743286132811	-1379.919799804688	71.01540374755861	253.8099517822264	-1365.263916015625	77.68614196777345	309.7050476074218	-1401.152709960938	105.2716903686524	363.5594177246093	-1111.30908203125	1528.01318359375	217.9526824951171	-1203.956298828125	1279.432495117188	223.1918487548827	-926.8973388671877	1255.60888671875	226.1609802246093	-984.553649902344	1436.0458984375	225.0812072753906	-1223.47021484375	1305.408935546875	117.5443649291991	-1183.579711914063	1447.357055664063	109.8529891967772	-1142.751953125	1443.41650390625	45.0128021240233	-1092.576416015625	1438.25244140625	18.37420082092272	-1118.541381835938	1100.529174804688	-69.61767578125016	-1160.776000976563	1092.959716796875	17.59919357299791	-1160.034912109375	1084.36376953125	-41.64760589599624	-1050.268676757813	838.3853149414065	-22.06120491027845	-1120.098999023438	845.2786254882815	-79.16500854492203	-1032.775268554688	748.9222412109376	-37.78493118286146	-1135.660400390625	763.6749267578126	-84.05951690673844	-1217.268432617188	1311.1259765625	345.8045043945311	-1167.553833007813	1454.908447265625	354.505401611328	-1121.661987304688	1442.743530273438	421.8634643554688	-1073.458984375	1440.495239257813	437.732177734375	-1077.914184570313	1108.18505859375	532.2713012695312	-1101.520385742188	1088.90087890625	434.15185546875	-1119.250366210938	1084.018920898438	502.3736877441406	-958.6802978515628	865.306335449219	490.6827392578125	-1026.578125	862.2017822265627	552.81005859375	-918.3261718750003	779.6826782226565	521.7492065429688	-1025.96826171875	763.2055664062501	548.1442260742188	
25	0.24	-922.976745605469	1005.381042480469	102.1763229370116	-1140.691528320313	1012.416931152344	164.348907470703	-1146.396240234375	996.617858886719	268.2919311523437	-949.7864379882815	975.672790527344	352.9809265136718	-988.6690673828127	913.1044921875002	22.89058494567859	-936.3610839843752	501.8898315429689	82.41600799560537	-954.7747802734377	495.2664489746095	217.1835937499999	-948.8460083007815	438.3648071289064	78.62873840332021	-886.8758544921877	433.4746093750001	139.5025634765624	-942.3157958984377	66.01311492919923	114.0934829711913	-928.396911621094	98.66432952880862	211.833023071289	-999.9588623046877	21.47805404663086	168.4317321777343	-802.9573974609377	18.24490547180176	214.9743499755859	-782.6724853515627	38.63903427124024	157.5824127197265	-834.2600708007815	19.40036392211914	96.54482269287102	-1023.554748535156	866.1572875976565	403.3787841796875	-1033.55419921875	464.9548339843751	392.961669921875	-982.708190917969	451.636199951172	267.7079467773437	-1082.482421875	440.8135681152345	393.2887573242188	-1033.236206054688	385.6115112304689	348.1239624023437	-1386.729614257813	244.0553283691407	338.866485595703	-1334.418334960938	227.3069000244141	249.6830291748046	-1429.527465820313	259.6860046386719	270.2469177246093	-1359.2626953125	77.0774612426758	254.2421417236327	-1344.461547851563	84.01814270019533	309.7635803222655	-1380.246459960938	112.567253112793	363.3324279785155	-1100.552978515625	1529.329711914063	216.773452758789	-1193.253540039063	1280.808959960938	221.9867401123046	-916.8041992187502	1256.620849609375	225.7035675048828	-973.8575439453127	1437.300170898438	224.4106445312499	-1212.3349609375	1306.828735351563	116.0464477539061	-1172.37109375	1448.634887695313	108.4970703124999	-1131.282958984375	1444.503051757813	43.69207382202136	-1081.109619140625	1439.270874023438	17.27927780151354	-1104.0576171875	1101.352294921875	-71.24271392822281	-1146.745361328125	1093.236328125	15.65812301635729	-1145.527465820313	1084.670288085938	-43.61706924438491	-1032.57177734375	840.109558105469	-23.55512046813978	-1102.192749023438	846.062927246094	-80.85216522216811	-1013.654174804688	751.0392456054689	-39.62215042114271	-1116.44970703125	764.2696533203126	-85.81735229492203	-1206.934936523438	1312.40625	344.4008483886718	-1157.238403320313	1456.302368164063	353.2592468261718	-1111.508544921875	1444.182006835938	420.7376708984375	-1063.386962890625	1441.92529296875	436.77587890625	-1068.505859375	1109.268798828125	530.4802856445312	-1092.46484375	1090.540161132813	432.3887023925781	-1110.041748046875	1085.529174804688	500.5016784667969	-951.9749755859378	865.319274902344	488.2718200683594	-1019.752319335938	862.8538208007815	550.7374877929688	-912.7446289062503	778.7092285156252	518.2097778320312	-1020.200805664063	763.8583984375001	546.0031127929688	
26	0.25	-912.2501220703127	1005.970947265625	101.4717178344726	-1130.188232421875	1013.701965332031	163.3121643066405	-1136.131958007813	997.902526855469	267.0378112792968	-939.6146240234377	977.3244628906252	352.5690002441406	-979.0957031250002	913.3529052734377	22.15526580810535	-932.5931396484377	501.7471008300782	82.29910278320303	-950.4050292968752	495.499481201172	217.1750335693359	-946.0186157226565	438.3288574218751	78.61263275146474	-883.528747558594	432.9497375488282	139.0906372070312	-942.4668579101565	66.03183746337892	114.4235610961913	-928.3571777343752	98.5718688964844	212.1412963867187	-1000.122375488281	21.37002182006836	168.5773773193359	-803.0256958007815	18.14868927001953	215.0760192871093	-782.7075805664065	38.57221984863282	157.6405029296874	-834.369323730469	19.38970947265625	96.61868286132805	-1012.440307617188	867.5865478515627	402.5204772949219	-1009.791748046875	466.0550842285157	393.6147766113281	-959.311462402344	453.867889404297	267.7906799316406	-1058.072387695313	442.2849121093751	393.8221435546875	-1009.213256835938	387.2287597656251	347.8847656249999	-1364.457397460938	249.6515655517579	338.5215759277343	-1312.462036132813	232.9026489257813	249.1048431396483	-1407.85888671875	265.0780334472657	270.1659545898436	-1336.058959960938	82.48611450195314	254.471466064453	-1321.365234375	89.94370269775392	309.7335205078124	-1357.358764648438	118.7096328735352	362.9716796874999	-1089.851440429688	1530.656982421875	215.712173461914	-1182.673583984375	1282.221557617188	220.789825439453	-906.8283691406252	1257.594848632813	225.3084869384765	-963.2478637695315	1438.513061523438	223.8606262207031	-1201.291015625	1308.3291015625	114.51261138916	-1161.198486328125	1450.010620117188	107.2055511474608	-1119.81982421875	1445.689453125	42.42846298217761	-1069.643676757813	1440.384521484375	16.26762390136706	-1089.525756835938	1102.281127929688	-72.79014587402358	-1132.730834960938	1093.605102539063	13.72509860992418	-1131.005249023438	1085.070190429688	-45.56651306152358	-1014.758972167969	842.0222778320315	-24.89957237243665	-1084.23583984375	846.9531250000002	-82.40292358398452	-994.313903808594	753.4247436523439	-41.34055328369153	-1097.042114257813	764.9857788085939	-87.4298248291017	-1196.788818359375	1313.622680664063	342.9352416992186	-1147.065795898438	1457.643920898438	352.0489807128906	-1101.54541015625	1445.51513671875	419.6591186523438	-1053.521606445313	1443.235595703125	435.898681640625	-1059.189331054688	1110.24169921875	528.7958374023438	-1083.552368164063	1092.025268554688	430.7584533691406	-1100.9326171875	1086.889770507813	498.779296875	-945.2357788085941	865.344177246094	485.8499450683594	-1012.815246582032	863.4505615234377	548.7395629882812	-907.0504760742191	777.8120117187502	514.6054077148438	-1014.228637695313	764.5048217773439	543.9852905273438	
